{
    "asset": {
        "generator": "https://3dviewer.net",
        "version": "2.0"
    },
    "scene": 0,
    "scenes": [
        {
            "nodes": [
                0
            ]
        }
    ],
    "nodes": [
        {
            "mesh": 0
        }
    ],
    "materials": [
        {
            "name": "Material",
            "pbrMetallicRoughness": {
                "baseColorFactor": [
                    0.5775804404214573,
                    0.5775804404214573,
                    0.5775804404214573,
                    1
                ]
            },
            "emissiveFactor": [
                0,
                0,
                0
            ],
            "doubleSided": true,
            "alphaMode": "OPAQUE"
        }
    ],
    "meshes": [
        {
            "name": "2B811242",
            "primitives": [
                {
                    "attributes": {
                        "POSITION": 1,
                        "NORMAL": 2,
                        "TEXCOORD_0": 3
                    },
                    "mode": 4,
                    "material": 0,
                    "indices": 0
                }
            ]
        }
    ],
    "buffers": [
        {
            "uri": "model.bin",
            "byteLength": 25504
        }
    ],
    "bufferViews": [
        {
            "buffer": 0,
            "byteOffset": 0,
            "byteLength": 4800,
            "target": 34963
        },
        {
            "buffer": 0,
            "byteOffset": 4800,
            "byteLength": 7764,
            "target": 34962
        },
        {
            "buffer": 0,
            "byteOffset": 12564,
            "byteLength": 7764,
            "target": 34962
        },
        {
            "buffer": 0,
            "byteOffset": 20328,
            "byteLength": 5176,
            "target": 34962
        }
    ],
    "accessors": [
        {
            "bufferView": 0,
            "byteOffset": 0,
            "componentType": 5125,
            "count": 1200,
            "type": "SCALAR"
        },
        {
            "bufferView": 1,
            "byteOffset": 0,
            "componentType": 5126,
            "count": 647,
            "min": [
                13952.221488131676,
                20667.896062070504,
                139.05999999999997
            ],
            "max": [
                14118.075699037174,
                20860.32960350439,
                163.64474487304688
            ],
            "type": "VEC3"
        },
        {
            "bufferView": 2,
            "byteOffset": 0,
            "componentType": 5126,
            "count": 647,
            "type": "VEC3"
        },
        {
            "bufferView": 3,
            "byteOffset": 0,
            "componentType": 5126,
            "count": 647,
            "type": "VEC2"
        }
    ]
}